<svg width="697.744873" height="649.994324" viewBox="0 0 697.745 649.994" fill="none" xmlns="http://www.w3.org/2000/svg" xmlns:xlink="http://www.w3.org/1999/xlink">
	<desc>
			Created with Pixso.
	</desc>
	<defs/>
	<path id="Path 3" d="" fill="#D8D8D8" fill-opacity="0" fill-rule="nonzero"/>
	<path id="Path 3" d="M107.71 41.79C28.02 113.97 -22.09 177.2 10.27 259.01C42.62 340.83 174.69 289.87 213.06 362.99C251.44 436.11 167.12 502.48 203.47 567.56C239.82 632.63 267.77 674.34 384.59 632.96C501.4 591.59 490.63 486.3 579.46 424.65C668.3 362.99 764.41 270.69 632.51 106C500.61 -58.69 416.65 56.51 340.94 32.82C265.24 9.12 187.4 -30.39 107.71 41.79Z" stroke="#9E96C6" stroke-opacity="1.000000" stroke-width="1.000000"/>
	<path id="Path 3 Copy" d="" fill="#D8D8D8" fill-opacity="0" fill-rule="nonzero"/>
	<path id="Path 3 Copy" d="M160.68 78.03C95.85 136.64 55.09 187.98 81.41 254.42C107.73 320.85 215.17 279.47 246.38 338.85C277.6 398.23 209.01 452.11 238.58 504.96C268.15 557.8 290.89 591.67 385.91 558.07C480.94 524.47 472.18 438.98 544.44 388.91C616.71 338.85 694.89 263.9 587.6 130.17C480.3 -3.57 411.99 89.98 350.41 70.74C288.83 51.5 225.51 19.41 160.68 78.03Z" stroke="#9E96C6" stroke-opacity="1.000000" stroke-width="1.000000"/>
	<path id="Path 3 Copy 2" d="" fill="#D8D8D8" fill-opacity="0" fill-rule="nonzero"/>
	<path id="Path 3 Copy 2" d="M214.19 101.85C161.59 149.68 128.53 191.57 149.88 245.78C171.23 299.99 258.39 266.22 283.72 314.67C309.04 363.12 253.4 407.09 277.39 450.21C301.38 493.32 319.82 520.96 396.92 493.54C474.02 466.13 466.91 396.37 525.53 355.52C584.16 314.67 647.59 253.52 560.54 144.4C473.49 35.28 418.08 111.61 368.12 95.91C318.16 80.21 266.78 54.03 214.19 101.85Z" stroke="#9E96C6" stroke-opacity="1.000000" stroke-width="1.000000"/>
	<path id="Path 3 Copy 5" d="" fill="#D8D8D8" fill-opacity="0" fill-rule="nonzero"/>
	<path id="Path 3 Copy 5" d="M262.47 131.45C220.06 169.82 193.39 203.43 210.61 246.92C227.83 290.41 298.13 263.32 318.55 302.19C338.98 341.06 294.1 376.34 313.45 410.94C332.8 445.53 347.67 467.7 409.85 445.71C472.03 423.71 466.3 367.74 513.58 334.97C560.87 302.19 612.02 253.13 541.82 165.58C471.61 78.03 426.92 139.27 386.62 126.68C346.33 114.08 304.89 93.07 262.47 131.45Z" stroke="#9E96C6" stroke-opacity="1.000000" stroke-width="1.000000"/>
	<path id="Path 3 Copy 4" d="" fill="#D8D8D8" fill-opacity="0" fill-rule="nonzero"/>
	<path id="Path 3 Copy 4" d="M290 150.44C255.35 181.8 233.57 209.28 247.64 244.83C261.7 280.37 319.11 258.23 335.8 290C352.48 321.78 315.82 350.61 331.63 378.89C347.43 407.17 359.58 425.29 410.36 407.31C461.14 389.33 456.46 343.58 495.08 316.79C533.7 290 575.48 249.9 518.14 178.34C460.8 106.78 424.3 156.83 391.39 146.54C358.48 136.24 324.64 119.07 290 150.44Z" stroke="#9E96C6" stroke-opacity="1.000000" stroke-width="1.000000"/>
	<path id="Path 3 Copy 3" d="" fill="#D8D8D8" fill-opacity="0" fill-rule="nonzero"/>
	<path id="Path 3 Copy 3" d="M318.21 164.06C290.09 189.53 272.4 211.85 283.82 240.71C295.24 269.58 341.85 251.6 355.4 277.4C368.94 303.2 339.18 326.62 352.01 349.58C364.84 372.54 374.71 387.26 415.93 372.66C457.16 358.06 453.36 320.91 484.71 299.16C516.07 277.4 549.99 244.83 503.44 186.72C456.88 128.61 427.25 169.26 400.53 160.9C373.81 152.54 346.34 138.59 318.21 164.06Z" stroke="#9E96C6" stroke-opacity="1.000000" stroke-width="1.000000"/>
</svg>
