<svg width="765.720703" height="713.993408" viewBox="0 0 765.721 713.993" fill="none" xmlns="http://www.w3.org/2000/svg" xmlns:xlink="http://www.w3.org/1999/xlink">
	<desc>
			Created with Pixso.
	</desc>
	<defs/>
	<path id="Path 3" d="" fill="#D8D8D8" fill-opacity="0" fill-rule="nonzero"/>
	<path id="Path 3" d="M118.17 45.86C30.7 125.16 -24.29 194.63 11.22 284.51C46.73 374.39 191.69 318.41 233.8 398.74C275.92 479.07 183.38 551.98 223.27 623.48C263.17 694.97 293.85 740.79 422.06 695.33C550.27 649.87 538.45 534.21 635.95 466.47C733.45 398.74 838.94 297.34 694.17 116.4C549.4 -64.53 457.25 62.04 374.16 36.01C291.07 9.98 205.64 -33.44 118.17 45.86Z" stroke="#9E96C6" stroke-opacity="1.000000" stroke-width="1.000000"/>
	<path id="Path 3 Copy" d="" fill="#D8D8D8" fill-opacity="0" fill-rule="nonzero"/>
	<path id="Path 3 Copy" d="M176.13 85.33C105.02 149.73 60.3 206.14 89.18 279.13C118.05 352.12 235.91 306.66 270.15 371.89C304.39 437.13 229.15 496.33 261.59 554.39C294.03 612.45 318.97 649.66 423.22 612.75C527.46 575.83 517.85 481.9 597.13 426.9C676.4 371.89 762.17 289.55 644.46 142.62C526.76 -4.31 451.83 98.47 384.27 77.33C316.71 56.19 247.25 20.94 176.13 85.33Z" stroke="#9E96C6" stroke-opacity="1.000000" stroke-width="1.000000"/>
	<path id="Path 3 Copy 2" d="" fill="#D8D8D8" fill-opacity="0" fill-rule="nonzero"/>
	<path id="Path 3 Copy 2" d="M235.1 112.53C177.36 165.02 141.06 211.01 164.51 270.51C187.95 330.01 283.63 292.95 311.44 346.13C339.24 399.31 278.15 447.57 304.49 494.9C330.82 542.23 351.08 572.57 435.71 542.47C520.35 512.38 512.55 435.81 576.91 390.97C641.27 346.13 710.91 279 615.34 159.23C519.78 39.45 458.94 123.23 404.09 106C349.24 88.77 292.84 60.03 235.1 112.53Z" stroke="#9E96C6" stroke-opacity="1.000000" stroke-width="1.000000"/>
	<path id="Path 3 Copy 5" d="" fill="#D8D8D8" fill-opacity="0" fill-rule="nonzero"/>
	<path id="Path 3 Copy 5" d="M288 144.61C241.47 186.76 212.21 223.69 231.1 271.46C250 319.24 327.12 289.48 349.52 332.18C371.93 374.88 322.7 413.64 343.92 451.64C365.15 489.65 381.47 514 449.68 489.84C517.89 465.68 511.6 404.19 563.48 368.19C615.35 332.18 671.47 278.28 594.45 182.11C517.43 85.93 468.4 153.21 424.2 139.37C379.99 125.53 334.54 102.46 288 144.61Z" stroke="#9E96C6" stroke-opacity="1.000000" stroke-width="1.000000"/>
	<path id="Path 3 Copy 4" d="" fill="#D8D8D8" fill-opacity="0" fill-rule="nonzero"/>
	<path id="Path 3 Copy 4" d="M318.45 165.22C280.49 199.7 256.62 229.9 272.03 268.98C287.44 308.06 350.35 283.72 368.63 318.64C386.91 353.57 346.75 385.27 364.06 416.36C381.37 447.44 394.69 467.36 450.33 447.6C505.97 427.83 500.84 377.54 543.16 348.09C585.47 318.64 631.25 274.56 568.42 195.89C505.6 117.22 465.6 172.25 429.54 160.93C393.48 149.62 356.41 130.74 318.45 165.22Z" stroke="#9E96C6" stroke-opacity="1.000000" stroke-width="1.000000"/>
	<path id="Path 3 Copy 3" d="" fill="#D8D8D8" fill-opacity="0" fill-rule="nonzero"/>
	<path id="Path 3 Copy 3" d="M349.89 180.46C319.02 208.38 299.61 232.84 312.15 264.48C324.68 296.12 375.84 276.41 390.7 304.69C405.57 332.97 372.91 358.64 386.99 383.8C401.07 408.97 411.9 425.1 457.15 409.1C502.4 393.1 498.23 352.38 532.64 328.53C567.05 304.69 604.28 268.99 553.19 205.3C502.09 141.6 469.57 186.16 440.24 177C410.92 167.83 380.76 152.55 349.89 180.46Z" stroke="#9E96C6" stroke-opacity="1.000000" stroke-width="1.000000"/>
</svg>
