<svg width="24.000000" height="19.504028" viewBox="0 0 24 19.504" fill="none" xmlns="http://www.w3.org/2000/svg" xmlns:xlink="http://www.w3.org/1999/xlink">
	<desc>
			Created with Pixso.
	</desc>
	<defs/>
	<path id="Path" d="M24 2.3C23.11 2.7 22.16 2.96 21.17 3.08C22.18 2.47 22.97 1.51 23.33 0.35C22.38 0.92 21.33 1.33 20.2 1.55C19.31 0.59 18.03 0 16.61 0C13.43 0 11.1 2.96 11.81 6.04C7.72 5.84 4.1 3.88 1.67 0.9C0.38 3.11 1 6 3.19 7.47C2.38 7.44 1.62 7.22 0.96 6.85C0.91 9.14 2.54 11.27 4.91 11.74C4.22 11.93 3.46 11.98 2.68 11.83C3.31 13.78 5.13 15.21 7.29 15.25C5.21 16.87 2.61 17.6 0 17.29C2.17 18.68 4.76 19.5 7.54 19.5C16.68 19.5 21.85 11.78 21.54 4.85C22.5 4.16 23.34 3.29 24 2.3Z" fill="#837D88" fill-opacity="1.000000" fill-rule="nonzero"/>
</svg>
