<svg width="24.000000" height="24.000000" viewBox="0 0 24 24" fill="none" xmlns="http://www.w3.org/2000/svg" xmlns:xlink="http://www.w3.org/1999/xlink">
	<desc>
			Created with Pixso.
	</desc>
	<defs/>
	<path id="Path" d="M22.67 0L1.32 0C0.59 0 0 0.59 0 1.32L0 22.67C0 23.4 0.59 24 1.32 24L12.82 24L12.82 14.7L9.69 14.7L9.69 11.08L12.82 11.08L12.82 8.41C12.82 5.31 14.71 3.62 17.47 3.62C18.8 3.62 19.94 3.72 20.27 3.76L20.27 7L18.35 7C16.85 7 16.56 7.72 16.56 8.77L16.56 11.08L20.14 11.08L19.68 14.7L16.56 14.7L16.56 24L22.67 24C23.4 24 24 23.4 24 22.67L24 1.32C24 0.59 23.4 0 22.67 0Z" fill="#837D88" fill-opacity="1.000000" fill-rule="nonzero"/>
</svg>
