<svg width="24.000000" height="24.000000" viewBox="0 0 24 24" fill="none" xmlns="http://www.w3.org/2000/svg" xmlns:xlink="http://www.w3.org/1999/xlink">
	<desc>
			Created with Pixso.
	</desc>
	<defs/>
	<path id="Shape" d="M12 0C8.74097 0 8.33301 0.0139771 7.05298 0.0720215C2.69507 0.271973 0.272949 2.69 0.072998 7.052C0.013916 8.33301 0 8.74103 0 12C0 15.259 0.013916 15.668 0.0720215 16.948C0.271973 21.306 2.68994 23.728 7.052 23.928C8.33301 23.986 8.74097 24 12 24C15.259 24 15.668 23.986 16.948 23.928C21.302 23.728 23.73 21.3101 23.927 16.948C23.9861 15.668 24 15.259 24 12C24 8.74103 23.9861 8.33301 23.928 7.05298C23.7319 2.69897 21.311 0.27301 16.949 0.072998C15.668 0.0139771 15.259 0 12 0ZM16.8501 2.23297C15.584 2.17499 15.2041 2.16302 12 2.16302C8.7959 2.16302 8.41699 2.17499 7.15088 2.23199C3.896 2.38 2.3811 3.92401 2.23193 7.151C2.17505 8.41699 2.16211 8.79602 2.16211 12C2.16211 15.205 2.17407 15.584 2.23193 16.849C2.37988 20.0699 3.89111 21.62 7.15088 21.769C8.41602 21.827 8.7959 21.839 12 21.839C15.2061 21.839 15.584 21.827 16.8501 21.769C20.105 21.621 21.6201 20.075 21.769 16.85C21.8259 15.585 21.8379 15.206 21.8379 12.001C21.8379 8.797 21.8269 8.41699 21.769 7.15198C21.6211 3.92401 20.1021 2.38098 16.8501 2.23297ZM16.9651 5.59497C16.9651 4.79999 17.6101 4.15503 18.406 4.15503C19.2009 4.15503 19.845 4.79999 19.845 5.59497C19.845 6.39001 19.2009 7.03497 18.406 7.03497C17.6101 7.03497 16.9651 6.39001 16.9651 5.59497ZM5.83789 12C5.83789 8.59698 8.59692 5.83801 12 5.83801C15.4031 5.83801 18.1621 8.59698 18.1621 12C18.1621 15.404 15.4031 18.163 12 18.163C8.59692 18.163 5.83789 15.403 5.83789 12ZM12 16C9.79102 16 8 14.21 8 12C8 9.79102 9.79102 8 12 8C14.209 8 16 9.79102 16 12C16 14.21 14.209 16 12 16Z" clip-rule="evenodd" fill="#837D88" fill-opacity="1.000000" fill-rule="evenodd"/>
</svg>
